<?xml version="1.0" encoding="UTF-8"?>
<svg version="1.1" xmlns="http://www.w3.org/2000/svg" width="800" height="287">
<path d="M0 0 C0 32.34 0 64.68 0 98 C4.512184 94.051839 8.87452188 90.18348545 13.1875 86.0625 C34.10699926 67.02113258 61.61732173 59.19822808 89.44238281 60.07714844 C118.65735304 61.69954443 141.75723697 74.47036302 163 94 C163.99 95.485 163.99 95.485 165 97 C165.33 64.99 165.66 32.98 166 0 C173.96347162 0 177.72842841 0.50082908 184 5 C193.46458584 15.06829399 192.29058439 28.31982603 192.25878906 41.19677734 C192.26150212 43.04230385 192.26506482 44.88782927 192.26940918 46.73335266 C192.27849923 51.72722786 192.27500256 56.72102009 192.26865101 61.71489668 C192.26357196 66.95345749 192.26828789 72.19201141 192.27142334 77.43057251 C192.27505808 86.2284675 192.27027747 95.02632887 192.26074219 103.82421875 C192.24986537 113.97674456 192.2533796 124.12918999 192.264395 134.28171384 C192.27348998 143.01575988 192.27474214 151.7497818 192.26951766 160.48383105 C192.26640924 165.69257652 192.26595737 170.9012843 192.27259064 176.11002731 C192.27839544 181.01025057 192.27431012 185.9103709 192.26280212 190.81058311 C192.26017195 192.6023574 192.26089232 194.39414045 192.26532745 196.18591118 C192.32533067 222.90358189 192.32533067 222.90358189 185 231 C179.94769 235.0277859 175.27396683 237.13356163 168.78222656 237.11352539 C167.96167786 237.11344986 167.14112915 237.11337433 166.29571533 237.11329651 C165.41953552 237.10813522 164.54335571 237.10297394 163.640625 237.09765625 C162.28405792 237.09553383 162.28405792 237.09553383 160.90008545 237.09336853 C158.01668973 237.08777911 155.13337218 237.07522853 152.25 237.0625 C150.29296987 237.05748363 148.33593853 237.05292096 146.37890625 237.04882812 C141.58590747 237.03781313 136.79296698 237.02055574 132 237 C132.95196073 235.87714102 133.905668 234.7557626 134.86010742 233.63500977 C135.39101486 233.01038345 135.9219223 232.38575714 136.46891785 231.74220276 C138.29602586 229.66315519 140.27352953 227.80751623 142.3125 225.9375 C156.67796676 211.71738366 164.90612208 191.48308279 165.24145508 171.39086914 C165.32584633 147.7781965 157.85796197 127.05315744 141.1640625 110.04296875 C125.36019742 94.55324778 105.51200188 86.71370876 83.5 86.5 C60.79240529 86.73883243 40.87053294 95.5320954 24.375 111.125 C18.82723348 116.84515474 14.76935158 123.00346384 11 130 C10.51789063 130.89332031 10.03578125 131.78664062 9.5390625 132.70703125 C0.52021395 150.93603727 -1.08918637 172.72399613 4.60546875 192.22265625 C10.82443363 209.95065398 21.82030226 223.85981138 35 237 C29.61062585 237.07464507 24.22155848 237.12883434 18.83178711 237.16479492 C17.00165559 237.17979997 15.17155954 237.20021059 13.34155273 237.22631836 C10.69766442 237.26306906 8.05425508 237.27980937 5.41015625 237.29296875 C4.60353043 237.30845261 3.7969046 237.32393646 2.96583557 237.33988953 C-4.22679402 237.34197867 -10.28265413 235.79447369 -16.3125 231.8125 C-22.97013783 224.8452046 -24.15139932 217.40063267 -24.14044189 208.01837158 C-24.14341302 207.22007329 -24.14638414 206.42177499 -24.1494453 205.59928584 C-24.15810941 202.9271825 -24.15963861 200.25512408 -24.16113281 197.58300781 C-24.1657626 195.66586207 -24.17078747 193.74871724 -24.17617798 191.83157349 C-24.18928834 186.6248201 -24.19574426 181.4180796 -24.20018864 176.21131229 C-24.20312151 172.95700215 -24.20722672 169.70269552 -24.21169281 166.44838715 C-24.22536403 156.26248925 -24.23503258 146.07659938 -24.2388947 135.89069295 C-24.24337494 124.13977707 -24.26092289 112.38897755 -24.2898953 100.63809705 C-24.31152326 91.55003028 -24.32159958 82.46199622 -24.32293582 73.37390399 C-24.32398303 67.94827217 -24.32987301 62.52274977 -24.34775543 57.09714508 C-24.36425536 51.99176701 -24.36638223 46.88658041 -24.35761642 41.78118515 C-24.35684709 39.91116447 -24.36117509 38.0411334 -24.37107468 36.17113876 C-24.47472038 15.36684348 -24.47472038 15.36684348 -18.75 7.6875 C-13.10695592 2.17270692 -7.85505785 0 0 0 Z " fill="#F87000" transform="translate(100,23)"/>
<path d="M0 0 C1.37651703 1.16151818 2.73085517 2.3497982 4.0625 3.5625 C5.19751953 4.57763672 5.19751953 4.57763672 6.35546875 5.61328125 C13.96063996 12.78532713 21.29563714 21.96132286 23.0625 32.5625 C23.14557541 35.56480657 23.12429581 38.55995075 23.0625 41.5625 C20.18724331 41.61675013 17.31302354 41.65629277 14.4375 41.6875 C13.62925781 41.70425781 12.82101563 41.72101563 11.98828125 41.73828125 C7.33624603 41.77610267 3.26918578 41.76978716 -0.9375 39.5625 C-2.62779266 37.32329787 -3.95951645 35.2961614 -5.3125 32.875 C-11.7228555 22.26958296 -19.92741682 15.80741891 -31.92578125 11.91796875 C-43.74291611 9.82989249 -55.41388771 12.25414093 -65.375 18.875 C-74.45245548 25.80794334 -80.60263439 34.91402301 -82.65234375 46.296875 C-84.20073512 58.59916263 -81.05440278 69.79915713 -74.04296875 80.0546875 C-67.54755598 87.7913387 -58.11379772 93.65176371 -47.97363281 94.78125 C-34.72747898 95.75657656 -24.33953103 93.25083674 -13.58203125 85.125 C-9.95683748 81.61225684 -7.42256762 77.68039893 -4.92919922 73.31103516 C-2.94096813 69.85378042 -1.67961819 67.9753448 2.0625 66.5625 C4.44433594 66.33544922 4.44433594 66.33544922 7.046875 66.3671875 C8.44873047 66.37685547 8.44873047 66.37685547 9.87890625 66.38671875 C11.33103516 66.41185547 11.33103516 66.41185547 12.8125 66.4375 C14.28783203 66.45103516 14.28783203 66.45103516 15.79296875 66.46484375 C18.21639407 66.48837215 20.63932222 66.52124632 23.0625 66.5625 C23.43988958 78.82011371 17.61667618 89.08894653 9.7734375 98.23046875 C-3.12021057 111.75856617 -20.33369888 120.2181711 -39.09619141 120.96728516 C-58.7355234 121.26559285 -75.64022799 114.14490841 -89.9375 100.5625 C-102.99426663 86.78035745 -108.63654593 69.35959096 -108.40795898 50.64379883 C-107.67587804 31.43985154 -99.82416214 15.67768091 -85.9375 2.5625 C-60.78747327 -19.05194326 -26.42826161 -19.75213281 0 0 Z " fill="#000000" transform="translate(225.9375,138.4375)"/>
<path d="M0 0 C3.375 2.0625 3.375 2.0625 4.375 3.0625 C4.705 1.7425 5.035 0.4225 5.375 -0.9375 C8.345 -0.9375 11.315 -0.9375 14.375 -0.9375 C14.4495815 5.57289166 14.50380554 12.0830304 14.53979492 18.59375 C14.55481037 20.80505714 14.57522891 23.01633485 14.60131836 25.22753906 C14.63802154 28.41999609 14.6547993 31.61205675 14.66796875 34.8046875 C14.68345261 35.78114227 14.69893646 36.75759705 14.71488953 37.76364136 C14.71664201 45.03534584 14.0335386 52.5253399 9.54296875 58.5 C2.39495398 64.13945938 -3.50720193 65.96581126 -12.625 65.0625 C-18.96519874 63.62867414 -24.3380896 60.49286559 -28 55 C-28.625 53.0625 -28.625 53.0625 -28.625 49.0625 C-23.43592849 48.53479781 -23.43592849 48.53479781 -20.625 49.0625 C-18.51525682 50.84560781 -17.2513437 52.78561882 -15.625 55.0625 C-10.37105226 56.81381591 -4.76061649 56.9523402 0.375 54.8125 C3.22236579 52.32105494 4.2829441 50.27763789 4.5703125 46.484375 C4.54710937 45.60265625 4.52390625 44.7209375 4.5 43.8125 C4.48195313 42.92046875 4.46390625 42.0284375 4.4453125 41.109375 C4.42210937 40.43390625 4.39890625 39.7584375 4.375 39.0625 C3.446875 39.701875 2.51875 40.34125 1.5625 41 C-4.02483681 44.61533558 -9.12994851 44.69334631 -15.625 44.0625 C-21.47241665 42.34267157 -25.25909731 39.15943837 -28.625 34.0625 C-32.35906775 25.94692533 -32.76005515 18.6148221 -29.6640625 10.23828125 C-27.27519228 5.23602294 -24.15197178 1.99065932 -19.4375 -0.875 C-12.71597896 -2.74821078 -6.37750794 -3.13723012 0 0 Z M-17.625 8.0625 C-22.24143217 12.92190228 -22.99872206 16.99446985 -22.89453125 23.4921875 C-22.48053158 27.44018436 -21.35690842 30.16989108 -18.625 33.0625 C-14.8314542 35.90971658 -11.75661925 37.0625 -7 37.0625 C-1.99949738 35.58086959 1.19648386 33.71242259 4.25 29.4375 C6.16648053 23.68805841 6.57385593 17.76513558 3.875 12.1875 C1.34843436 8.37058119 -2.32122293 6.41583615 -6.625 5.0625 C-11.18897781 5.0625 -13.59233087 5.97415349 -17.625 8.0625 Z " fill="#000000" transform="translate(708.625,208.9375)"/>
<path d="M0 0 C2.64 0 5.28 0 8 0 C8 8.25 8 16.5 8 25 C16.91 25 25.82 25 35 25 C35 16.75 35 8.5 35 0 C37.97 0 40.94 0 44 0 C44 18.81 44 37.62 44 57 C41.03 57 38.06 57 35 57 C35 48.75 35 40.5 35 32 C26.09 32 17.18 32 8 32 C8 40.25 8 48.5 8 57 C5.36 57 2.72 57 0 57 C0 38.19 0 19.38 0 0 Z " fill="#000000" transform="translate(335,115)"/>
<path d="M0 0 C2.05253403 1.16679321 3.89379428 2.45629428 5.5703125 4.1328125 C5.9003125 2.4828125 6.2303125 0.8328125 6.5703125 -0.8671875 C9.2103125 -0.8671875 11.8503125 -0.8671875 14.5703125 -0.8671875 C14.5703125 13.9828125 14.5703125 28.8328125 14.5703125 44.1328125 C11.9303125 44.1328125 9.2903125 44.1328125 6.5703125 44.1328125 C6.2403125 42.4828125 5.9103125 40.8328125 5.5703125 39.1328125 C5.09722656 39.48214844 4.62414062 39.83148438 4.13671875 40.19140625 C-0.93858736 43.68377088 -5.20427154 45.49278553 -11.4296875 45.1328125 C-17.49788988 43.98748953 -22.16905532 41.69069809 -26.4296875 37.1328125 C-31.00330104 30.32226026 -31.27717439 23.12192672 -30.4296875 15.1328125 C-29.20708929 9.8944494 -26.1502767 5.93992703 -22.4296875 2.1328125 C-15.76451373 -1.87581344 -7.40412705 -2.64263055 0 0 Z M-18.4296875 10.1328125 C-21.61014599 14.30296049 -22.75314789 18.01933212 -22.4296875 23.2578125 C-21.57690863 28.80940292 -19.52104591 32.39001383 -15.1796875 36.0078125 C-10.21789011 38.03763871 -6.10670131 37.71331728 -1.1796875 36.0078125 C2.72755814 33.34378138 4.89062701 30.64671773 6.140625 26.0234375 C7.03225536 20.5218885 6.43373983 15.96347997 3.5703125 11.1328125 C-0.21107288 7.44596175 -2.96379664 6.25296749 -8.2421875 5.8203125 C-12.67721648 5.90982685 -15.09406663 7.10042989 -18.4296875 10.1328125 Z " fill="#000000" transform="translate(500.4296875,127.8671875)"/>
<path d="M0 0 C5.16157406 3.80524803 7.91782349 7.99843241 10 14 C6.57283469 14.4267024 3.41296788 14.5977803 0 14 C-1.98577201 12.41054804 -3.23578324 10.83254401 -4.6484375 8.7265625 C-6.30617284 6.60887747 -7.46662349 5.90509423 -10 5 C-15.65644355 4.36411223 -21.86032354 3.92748453 -27.0625 6.5625 C-30.60319815 9.50052612 -32.01479241 11.87687655 -34 16 C-34.33 16.66 -34.66 17.32 -35 18 C-35.95610384 29.75587964 -35.95610384 29.75587964 -31 40 C-26.65600255 44.34399745 -22.43717359 45.34821564 -16.375 45.5625 C-11.14124926 45.34467916 -7.9122109 44.7115847 -4 41 C-3.13375 39.63875 -3.13375 39.63875 -2.25 38.25 C0 36 0 36 2.46875 35.68359375 C4.99764442 35.68714557 7.48095276 35.78366961 10 36 C7.73333705 42.53332262 4.25086558 47.52183581 -1.8359375 51.0703125 C-10.4286309 54.93514839 -19.61562857 55.12812381 -28.5078125 52.1640625 C-35.73796094 48.78697122 -40.48196519 43.44457109 -43.34375 36.078125 C-46.35521356 26.54182372 -45.54209356 17.96360057 -41 9 C-36.71105562 2.51772204 -31.49836283 -1.34602094 -24.078125 -3.578125 C-15.6394022 -5.29124918 -7.58313395 -4.00351792 0 0 Z " fill="#000000" transform="translate(377,199)"/>
<path d="M0 0 C7.47595212 7.18609291 12.81005335 15.64651627 16.41796875 25.32421875 C16.73636719 26.1028125 17.05476562 26.88140625 17.3828125 27.68359375 C21.89067856 40.72939968 21.49348438 59.76518783 15.50683594 72.21972656 C13.80827513 75.58637352 12.02014829 78.89197833 10.16015625 82.171875 C8.30485441 85.52888976 7.36061855 87.42573224 7.60546875 91.26171875 C7.41796875 94.32421875 7.41796875 94.32421875 5.79296875 96.69921875 C2.74010954 98.78801716 1.04828651 98.86490437 -2.58203125 98.32421875 C-4.45703125 97.32421875 -4.45703125 97.32421875 -5.58203125 95.32421875 C-6.10299024 92.54577082 -6.20153928 90.09174061 -5.58203125 87.32421875 C-3.16626831 85.2535648 -1.23817242 84.48453803 1.83203125 83.734375 C5.69698351 81.62674997 6.802124 78.53517748 8.60546875 74.63671875 C8.94771484 73.94126953 9.28996094 73.24582031 9.64257812 72.52929688 C16.40739419 58.46110657 17.01622447 43.16188927 12.41796875 28.32421875 C6.07427728 12.47335907 -3.51812684 1.10947152 -18.89453125 -6.48828125 C-35.60960231 -13.54628558 -51.81357718 -12.99958349 -68.51171875 -6.54296875 C-78.59800116 -1.82419193 -78.59800116 -1.82419193 -85.34375 6.3515625 C-85.66970111 8.49230914 -85.66970111 8.49230914 -85.33203125 11.32421875 C-85.58203125 14.32421875 -85.58203125 14.32421875 -87.70703125 16.76171875 C-90.58203125 18.32421875 -90.58203125 18.32421875 -93.70703125 18.38671875 C-96.58203125 17.32421875 -96.58203125 17.32421875 -98.51953125 15.07421875 C-99.75557173 11.87505516 -99.75927497 10.51959456 -98.58203125 7.32421875 C-96.88004846 4.90561163 -95.76709727 4.37586508 -92.89453125 3.57421875 C-89.66259395 2.35461977 -88.31159329 1.35842135 -85.83203125 -0.92578125 C-61.38626558 -23.23776092 -24.56190415 -20.5007944 0 0 Z M-94.58203125 8.32421875 C-94.91203125 9.64421875 -95.24203125 10.96421875 -95.58203125 12.32421875 C-94.09703125 13.31421875 -94.09703125 13.31421875 -92.58203125 14.32421875 C-91.59203125 13.66421875 -90.60203125 13.00421875 -89.58203125 12.32421875 C-89.58203125 11.33421875 -89.58203125 10.34421875 -89.58203125 9.32421875 C-91.23203125 8.99421875 -92.88203125 8.66421875 -94.58203125 8.32421875 Z M-0.58203125 88.32421875 C-1.24203125 89.64421875 -1.90203125 90.96421875 -2.58203125 92.32421875 C-1.92203125 92.98421875 -1.26203125 93.64421875 -0.58203125 94.32421875 C1.52617672 94.00570105 1.52617672 94.00570105 3.41796875 93.32421875 C3.41796875 92.00421875 3.41796875 90.68421875 3.41796875 89.32421875 C2.09796875 88.99421875 0.77796875 88.66421875 -0.58203125 88.32421875 Z " fill="#F87000" transform="translate(619.58203125,104.67578125)"/>
<path d="M0 0 C4.69583437 3.00176754 8.8820699 7.9532903 10.8515625 13.18359375 C11.64377917 21.17945505 12.15336668 29.63796454 6.8515625 36.18359375 C1.48572824 41.96518272 -3.56609143 44.20722369 -11.4609375 44.55859375 C-17.94956864 44.3999044 -23.22621255 43.01802654 -27.96875 38.41796875 C-33.00449937 32.23883667 -34.44688318 26.55534031 -34.0234375 18.68359375 C-33.24783639 12.45293151 -31.95267167 7.50608788 -26.98828125 3.39453125 C-18.76896621 -2.24538899 -9.47967609 -4.07665083 0 0 Z M-20.1484375 8.18359375 C-24.81978305 13.10079959 -25.44909607 17.12915608 -25.36328125 23.6796875 C-24.95896701 28.39178615 -23.13265737 31.17203444 -19.8984375 34.49609375 C-16.46301126 36.60419621 -14.1806211 37.11407334 -10.1484375 37.18359375 C-4.51399958 35.36911374 -0.79352173 33.14474536 2.1015625 27.93359375 C3.8063817 21.68259 3.36536294 16.58720312 0.2578125 10.94921875 C-2.20365726 7.85870672 -5.40335215 6.29541596 -9.1484375 5.18359375 C-13.71241531 5.18359375 -16.11576837 6.09524724 -20.1484375 8.18359375 Z " fill="#000000" transform="translate(424.1484375,208.81640625)"/>
<path d="M0 0 C3.53197606 5.10090615 4.57254537 8.88606141 4.390625 15.12109375 C4.38496521 15.86585464 4.37930542 16.61061554 4.37347412 17.37794495 C4.3512735 19.7318138 4.3011137 22.0840997 4.25 24.4375 C4.22991366 26.04359764 4.21166664 27.6497194 4.1953125 29.25585938 C4.15146309 33.1711729 4.08255471 37.0853191 4 41 C1.36 41 -1.28 41 -4 41 C-4.01458252 40.11739502 -4.02916504 39.23479004 -4.04418945 38.32543945 C-4.10542067 35.03561357 -4.1796033 31.7466007 -4.26245117 28.45727539 C-4.29560557 27.03648798 -4.32366692 25.61557187 -4.34643555 24.19458008 C-4.38015847 22.1460918 -4.43247745 20.0987728 -4.48828125 18.05078125 C-4.51446533 16.82012939 -4.54064941 15.58947754 -4.56762695 14.3215332 C-5.03316526 10.74522115 -5.83546901 8.85592962 -8 6 C-12.01858595 3.3209427 -15.27641721 3.30389306 -20 4 C-22.87029869 5.79393668 -24.49131638 6.98263276 -26 10 C-26.15520557 12.32273159 -26.25019167 14.64959313 -26.31640625 16.9765625 C-26.33718735 17.66181 -26.35796844 18.3470575 -26.37937927 19.05307007 C-26.44480185 21.24361069 -26.50372554 23.43427189 -26.5625 25.625 C-26.60569218 27.1093875 -26.6493067 28.59376278 -26.69335938 30.078125 C-26.80047553 33.71862084 -26.90176362 37.35925251 -27 41 C-29.97 41 -32.94 41 -36 41 C-36 26.15 -36 11.3 -36 -4 C-33.03 -4 -30.06 -4 -27 -4 C-26.67 -3.01 -26.34 -2.02 -26 -1 C-24.9171875 -1.7115625 -24.9171875 -1.7115625 -23.8125 -2.4375 C-15.89106844 -6.83829531 -7.06587379 -5.2647687 0 0 Z " fill="#000000" transform="translate(575,131)"/>
<path d="M0 0 C3.7229703 2.6592645 6.55543557 5.73587115 8.625 9.875 C8.71158569 12.42862604 8.74062516 14.9545442 8.72265625 17.5078125 C8.7212413 18.25964813 8.71982635 19.01148376 8.71836853 19.78610229 C8.71276465 22.1907751 8.70021157 24.59535527 8.6875 27 C8.6824855 28.62890491 8.6779225 30.25781127 8.67382812 31.88671875 C8.66279397 35.88284827 8.64552679 39.87890842 8.625 43.875 C5.985 43.875 3.345 43.875 0.625 43.875 C0.61041748 42.99239502 0.59583496 42.10979004 0.58081055 41.20043945 C0.51957933 37.91061357 0.4453967 34.6216007 0.36254883 31.33227539 C0.32939443 29.91148798 0.30133308 28.49057187 0.27856445 27.06958008 C0.24484153 25.0210918 0.19252255 22.9737728 0.13671875 20.92578125 C0.11053467 19.69512939 0.08435059 18.46447754 0.05737305 17.1965332 C-0.40549038 13.64076983 -1.24196315 11.72651298 -3.375 8.875 C-7.06873263 6.55322521 -10.33250127 6.67034926 -14.5078125 7.32421875 C-17.2748602 8.14043993 -18.66044514 9.61178758 -20.375 11.875 C-21.82462183 14.77424366 -21.59626481 17.39800355 -21.69140625 20.6328125 C-21.71218735 21.29586395 -21.73296844 21.95891541 -21.75437927 22.64205933 C-21.81979231 24.76126694 -21.87872105 26.880599 -21.9375 29 C-21.98069309 30.43621081 -22.02430764 31.87240902 -22.06835938 33.30859375 C-22.17546499 36.83059594 -22.27675575 40.35273825 -22.375 43.875 C-25.345 43.875 -28.315 43.875 -31.375 43.875 C-31.375 29.355 -31.375 14.835 -31.375 -0.125 C-28.405 -0.125 -25.435 -0.125 -22.375 -0.125 C-22.045 0.865 -21.715 1.855 -21.375 2.875 C-20.776875 2.400625 -20.17875 1.92625 -19.5625 1.4375 C-14.01312027 -2.52634266 -6.24446084 -2.08148695 0 0 Z " fill="#000000" transform="translate(663.375,208.125)"/>
<path d="M0 0 C2.64 0 5.28 0 8 0 C8.01981934 0.75095947 8.03963867 1.50191895 8.06005859 2.27563477 C8.15579401 5.70491957 8.26527633 9.13363542 8.375 12.5625 C8.4059375 13.74392578 8.436875 14.92535156 8.46875 16.14257812 C8.53013066 26.52172367 8.53013066 26.52172367 13.125 35.4375 C16.9036863 37.49113386 19.7891669 37.6989642 24 37 C27.16488808 35.69276362 28.5569757 34.8750072 30.10693359 31.8137207 C31.15740538 28.50407408 31.32232535 25.63869111 31.4140625 22.16796875 C31.45273437 20.87568359 31.49140625 19.58339844 31.53125 18.25195312 C31.56270014 16.89714005 31.59394761 15.54232225 31.625 14.1875 C31.6632175 12.81312728 31.7022714 11.43877756 31.7421875 10.06445312 C31.83635404 6.70977011 31.921982 3.35509107 32 0 C34.64 0 37.28 0 40 0 C40 14.85 40 29.7 40 45 C37.36 45 34.72 45 32 45 C31.67 43.68 31.34 42.36 31 41 C30.566875 41.474375 30.13375 41.94875 29.6875 42.4375 C25.74244792 46.090326 20.290111 45.32963138 15.23828125 45.2734375 C10.58368853 44.88040796 8.60134182 43.98834747 5 41 C0.64697187 35.227215 -0.12755656 30.10334706 -0.09765625 23.046875 C-0.0962413 22.38665344 -0.09482635 21.72643188 -0.09336853 21.04620361 C-0.08779245 18.94742206 -0.07524447 16.84874905 -0.0625 14.75 C-0.0574819 13.32291821 -0.05291954 11.89583475 -0.04882812 10.46875 C-0.03783088 6.97913168 -0.0205828 3.48957644 0 0 Z " fill="#000000" transform="translate(386,127)"/>
<path d="M0 0 C4.55492928 2.62281788 6.50983153 6.2625511 8.15405273 11.22167969 C8.72123115 14.2986141 8.67340962 17.26282877 8.66015625 20.390625 C8.6587413 21.05084656 8.65732635 21.71106812 8.65586853 22.39129639 C8.65029245 24.49007794 8.63774447 26.58875095 8.625 28.6875 C8.6199819 30.11458179 8.61541954 31.54166525 8.61132812 32.96875 C8.60033088 36.45836832 8.5830828 39.94792356 8.5625 43.4375 C5.9225 43.4375 3.2825 43.4375 0.5625 43.4375 C0.54268066 42.68654053 0.52286133 41.93558105 0.50244141 41.16186523 C0.40670599 37.73258043 0.29722367 34.30386458 0.1875 30.875 C0.1565625 29.69357422 0.125625 28.51214844 0.09375 27.29492188 C0.11043988 17.2898184 0.11043988 17.2898184 -4.0625 8.5625 C-7.47511347 6.94599888 -10.65863084 6.31705795 -14.4375 6.4375 C-18.71263146 8.14755258 -20.42060925 10.37583846 -22.4375 14.4375 C-22.93759694 17.71949457 -22.93759694 17.71949457 -22.94921875 21.26953125 C-22.98466797 22.56181641 -23.02011719 23.85410156 -23.05664062 25.18554688 C-23.07973681 26.54035934 -23.10251935 27.89517718 -23.125 29.25 C-23.15819761 30.62438117 -23.19268953 31.99873171 -23.22851562 33.37304688 C-23.31091264 36.72778234 -23.38009395 40.08225904 -23.4375 43.4375 C-26.0775 43.4375 -28.7175 43.4375 -31.4375 43.4375 C-31.4375 28.9175 -31.4375 14.3975 -31.4375 -0.5625 C-28.7975 -0.5625 -26.1575 -0.5625 -23.4375 -0.5625 C-23.1075 0.4275 -22.7775 1.4175 -22.4375 2.4375 C-21.839375 1.963125 -21.24125 1.48875 -20.625 1 C-14.87636918 -3.10616487 -6.31466109 -2.77750131 0 0 Z " fill="#000000" transform="translate(472.4375,208.5625)"/>
<path d="M0 0 C2.64 0 5.28 0 8 0 C8.01458252 0.78125244 8.02916504 1.56250488 8.04418945 2.36743164 C8.11900498 5.93293368 8.21555633 9.49753377 8.3125 13.0625 C8.33505859 14.29162109 8.35761719 15.52074219 8.38085938 16.78710938 C8.63701863 25.80425784 8.63701863 25.80425784 12 34 C15.40745087 36.47814609 17.35056907 37 21.5625 37 C25.65945182 35.80815947 27.33730767 34.28920817 30 31 C31.1007076 27.6978772 31.20627072 25.05916721 31.31640625 21.58203125 C31.35830078 20.32841797 31.40019531 19.07480469 31.44335938 17.78320312 C31.48267578 16.47287109 31.52199219 15.16253906 31.5625 13.8125 C31.60570992 12.47720022 31.649325 11.14191348 31.69335938 9.80664062 C31.79956502 6.53786703 31.90160997 3.26901667 32 0 C34.64 0 37.28 0 40 0 C40 14.52 40 29.04 40 44 C37.36 44 34.72 44 32 44 C31.67 43.01 31.34 42.02 31 41 C29.865625 41.66 28.73125 42.32 27.5625 43 C21.55669186 45.98168213 16.5663647 45.81268216 10.25 43.8125 C5.84522326 41.3559899 2.83950312 39.02129606 0.87548828 34.29248047 C-0.10593038 30.60162379 -0.22685705 27.44970306 -0.1953125 23.6328125 C-0.1924826 22.95322479 -0.18965271 22.27363708 -0.18673706 21.57345581 C-0.17562964 19.42378392 -0.15054391 17.27454386 -0.125 15.125 C-0.11495795 13.65886023 -0.10583425 12.19271386 -0.09765625 10.7265625 C-0.07572159 7.15090369 -0.04125814 3.57549406 0 0 Z " fill="#000000" transform="translate(526,208)"/>
<path d="M0 0 C1.19367188 -0.01675781 2.38734375 -0.03351563 3.6171875 -0.05078125 C8.93702699 0.50015981 12.10027267 2.0720406 15.5 6.1875 C17.12046521 9.30377924 17.52903611 10.87819306 17.125 14.3125 C11.76586809 14.75177311 11.76586809 14.75177311 9.125 14.3125 C7.25 11.875 7.25 11.875 6.125 9.3125 C2.99793041 7.7489652 -0.45482443 7.91291513 -3.875 8.3125 C-4.865 8.9725 -5.855 9.6325 -6.875 10.3125 C-7.0863453 12.7037295 -7.0863453 12.7037295 -5.875 15.3125 C-1.67583874 17.98724414 3.14194821 19.32849619 7.875 20.75 C12.03938282 22.11871323 14.52179083 23.6517371 17.125 27.3125 C18.48508156 31.42674671 18.40756831 34.44817341 17.0625 38.5625 C14.278505 42.51397678 11.62049111 44.68323972 6.86328125 45.8828125 C-0.84794476 47.02073282 -7.62384341 45.70110484 -13.9375 41.0625 C-16.25887422 37.76764626 -16.64057829 35.29766902 -16.875 31.3125 C-14.235 31.3125 -11.595 31.3125 -8.875 31.3125 C-8.606875 32.116875 -8.33875 32.92125 -8.0625 33.75 C-7.670625 34.595625 -7.27875 35.44125 -6.875 36.3125 C-2.56732188 37.74839271 1.62919795 38.02395689 6.125 37.3125 C8.35525247 34.9922907 8.35525247 34.9922907 9.125 32.3125 C6.96647445 29.07471168 6.6618683 28.88724411 3.16796875 27.91796875 C2.38486328 27.68400391 1.60175781 27.45003906 0.79492188 27.20898438 C-0.84611485 26.74030119 -2.48934408 26.2792209 -4.13476562 25.82617188 C-9.83084007 24.1047538 -12.64324956 22.38178648 -15.875 17.3125 C-16.93655509 13.56583499 -16.74800069 9.93133199 -14.8828125 6.47265625 C-10.5498916 0.96903933 -6.78980191 0.02190259 0 0 Z " fill="#000000" transform="translate(448.875,126.6875)"/>
<path d="M0 0 C6.2192752 4.24730989 6.2192752 4.24730989 7.02734375 7.78515625 C7.28225476 9.76508152 7.42971027 11.75815398 7.5625 13.75 C4.9225 13.75 2.2825 13.75 -0.4375 13.75 C-1.0975 11.77 -1.7575 9.79 -2.4375 7.75 C-4.01763217 7.49971189 -5.60192306 7.27559054 -7.1875 7.0625 C-8.51007813 6.87107422 -8.51007813 6.87107422 -9.859375 6.67578125 C-12.99426517 6.76602809 -14.15573587 7.67615363 -16.4375 9.75 C-16.33090272 12.19952689 -16.33090272 12.19952689 -15.4375 14.75 C-13.22317785 16.09182828 -13.22317785 16.09182828 -10.4375 16.8125 C-9.4475 17.13347656 -8.4575 17.45445312 -7.4375 17.78515625 C-6.4475 18.10355469 -5.4575 18.42195313 -4.4375 18.75 C5.65632716 22.58024691 5.65632716 22.58024691 7.5625 26.75 C8.59939678 30.74945902 8.82003726 33.0203111 7.4375 36.9375 C4.76989727 40.93890409 2.13152501 43.22699166 -2.4375 44.75 C-9.42288195 45.33681722 -15.15767877 44.94499677 -21.4375 41.75 C-25.01692756 38.35413282 -25.98411888 35.62384699 -26.4375 30.75 C-23.38892627 30.4623987 -20.47363024 30.29047758 -17.4375 30.75 C-16.41883771 32.40532623 -15.41939187 34.07260138 -14.4375 35.75 C-10.61639881 36.92798881 -6.99249178 37.30632341 -3.19921875 35.94921875 C-1.07761693 34.79398188 -1.07761693 34.79398188 -0.6875 31.625 C-0.605 30.67625 -0.5225 29.7275 -0.4375 28.75 C-1.04335938 28.57984375 -1.64921875 28.4096875 -2.2734375 28.234375 C-20.4243213 22.98458092 -20.4243213 22.98458092 -24.4375 17.75 C-26.17272857 14.27954285 -25.89784575 10.54456421 -25.4375 6.75 C-23.32675122 2.86622225 -20.72307386 0.8230882 -16.5625 -0.74609375 C-10.93755795 -2.07994949 -5.42019219 -1.97097898 0 0 Z " fill="#000000" transform="translate(512.4375,208.25)"/>
<path d="M0 0 C2.64 0 5.28 0 8 0 C8 3.63 8 7.26 8 11 C11.96 11 15.92 11 20 11 C20 13.31 20 15.62 20 18 C16.04 18 12.08 18 8 18 C8.33 27.57 8.66 37.14 9 47 C12.63 47.33 16.26 47.66 20 48 C20 50.31 20 52.62 20 55 C17.77191841 55.10853983 15.54230068 55.18583307 13.3125 55.25 C12.07113281 55.29640625 10.82976563 55.3428125 9.55078125 55.390625 C5.41565531 54.93571566 3.8656606 53.95604322 1 51 C-0.15927528 47.52217417 -0.11313066 44.81196743 -0.09765625 41.14453125 C-0.0962413 40.48289474 -0.09482635 39.82125824 -0.09336853 39.13957214 C-0.08777996 37.03050172 -0.07522965 34.92153823 -0.0625 32.8125 C-0.05748352 31.38086091 -0.05292087 29.94922015 -0.04882812 28.51757812 C-0.0378143 25.01168412 -0.02055755 21.5058525 0 18 C-1.98 18 -3.96 18 -6 18 C-6 15.69 -6 13.38 -6 11 C-4.02 11 -2.04 11 0 11 C0 7.37 0 3.74 0 0 Z " fill="#000000" transform="translate(592,197)"/>
<path d="M0 0 C2.64 0 5.28 0 8 0 C8 19.8 8 39.6 8 60 C5.36 60 2.72 60 0 60 C0 40.2 0 20.4 0 0 Z " fill="#000000" transform="translate(574,192)"/>
<path d="M0 0 C2.64 0 5.28 0 8 0 C8 14.85 8 29.7 8 45 C5.36 45 2.72 45 0 45 C0 30.15 0 15.3 0 0 Z " fill="#000000" transform="translate(523,127)"/>
<path d="M0 0 C2.64 0 5.28 0 8 0 C8 14.52 8 29.04 8 44 C5.36 44 2.72 44 0 44 C0 29.48 0 14.96 0 0 Z " fill="#000000" transform="translate(616,208)"/>
</svg>
